<?xml version="1.0" encoding="utf-8"?>
<!-- Generator: Adobe Illustrator 26.0.3, SVG Export Plug-In . SVG Version: 6.00 Build 0)  -->
<svg version="1.1" xmlns="http://www.w3.org/2000/svg" xmlns:xlink="http://www.w3.org/1999/xlink" x="0px" y="0px"
	 viewBox="0 0 639.69 213.54" style="enable-background:new 0 0 639.69 213.54;" xml:space="preserve">
<style type="text/css">
	.st0{fill:#010101;}
	.st1{fill:#FFFFFF;}
	.st2{fill-rule:evenodd;clip-rule:evenodd;fill:#010101;}
	.st3{display:none;}
	.st4{display:inline;}
	.st5{display:inline;fill:#010101;}
</style>
<g id="Poster_1:_A4">
	<g id="Background">
	</g>
	<g id="Layer_6">
	</g>
	<g id="Graphic_Elements">
	</g>
	<g id="Text">
	</g>
	<path class="st1" d="M218.86,150.97v1.97h-21.95v-29.95h21.27v1.97h-18.95v11.81h16.95v1.92h-16.95v12.28H218.86z M256.62,122.99
		v29.95h-1.91l-21.67-26.01v26.01h-2.32v-29.95h1.95l21.63,26.01v-26.01H256.62z M277.2,124.96h-11.45v-1.97h25.22v1.97h-11.45
		v27.98h-2.32V124.96z M322.05,150.97v1.97H300.1v-29.95h21.27v1.97h-18.95v11.81h16.95v1.92h-16.95v12.28H322.05z M355.99,152.94
		l-7.59-10.01c-1,0.13-2,0.21-3.09,0.21h-9.09v9.8h-2.32v-29.95h11.41c8,0,12.81,3.77,12.81,10.1c0,4.75-2.73,8.04-7.45,9.37
		l7.95,10.48H355.99z M345.31,141.22c6.82,0,10.45-3,10.45-8.13c0-5.18-3.63-8.13-10.45-8.13h-9.09v16.26H345.31z M375.67,124.96
		h-11.45v-1.97h25.22v1.97h-11.45v27.98h-2.32V124.96z M416.65,144.51H398.2l-4.04,8.43h-2.5l14.63-29.95h2.32l14.63,29.95h-2.5
		L416.65,144.51z M415.79,142.67l-8.36-17.29l-8.32,17.29H415.79z M432.42,122.99h2.32v29.95h-2.32V122.99z M475.13,122.99v29.95
		h-1.91l-21.67-26.01v26.01h-2.32v-29.95h1.95l21.63,26.01v-26.01H475.13z M519.71,152.94l-0.05-25.63l-13.31,21.65h-1.14
		L491.9,127.4v25.54h-2.27v-29.95h1.95l14.22,23.15l14.22-23.15h1.91l0.04,29.95H519.71z M558.42,150.97v1.97h-21.95v-29.95h21.27
		v1.97h-18.95v11.81h16.95v1.92h-16.95v12.28H558.42z M596.18,122.99v29.95h-1.91l-21.67-26.01v26.01h-2.32v-29.95h1.95l21.63,26.01
		v-26.01H596.18z M616.76,124.96h-11.45v-1.97h25.22v1.97h-11.45v27.98h-2.32V124.96z M215.94,109.47
		c-0.62-0.86-1.04-2.08-1.25-3.64c-0.22-1.56-0.32-3.69-0.32-6.39V67.72c0-2.43,0.09-4.42,0.28-5.99c0.19-1.56,0.57-2.79,1.13-3.68
		c0.57-0.89,1.38-1.52,2.43-1.9c1.05-0.38,2.44-0.59,4.17-0.65v-3.08h-24.6v3.08c1.73,0.11,3.13,0.34,4.21,0.69
		c1.08,0.35,1.9,0.96,2.47,1.82c0.57,0.86,0.94,2.04,1.13,3.52c0.19,1.48,0.28,3.36,0.28,5.62V100c0,2.54-0.11,4.54-0.32,6.03
		c-0.22,1.48-0.65,2.63-1.29,3.44c-0.65,0.81-1.55,1.36-2.71,1.66c-1.16,0.3-2.68,0.47-4.57,0.53v3.08h26.22v-3.08
		c-1.89-0.05-3.41-0.21-4.57-0.49C217.45,110.9,216.56,110.33,215.94,109.47z M282.86,104.98c-0.84,1.59-1.97,2.83-3.4,3.72
		c-1.43,0.89-3.2,1.51-5.3,1.86c-2.1,0.35-4.69,0.53-7.77,0.53c-2.81,0-5.13-0.15-6.96-0.44c-1.83-0.3-3.3-0.84-4.41-1.62
		c-1.11-0.78-1.89-1.89-2.35-3.32c-0.46-1.43-0.69-3.28-0.69-5.54V65.29c0-2.05,0.09-3.69,0.28-4.94c0.19-1.24,0.57-2.21,1.13-2.91
		c0.57-0.7,1.38-1.19,2.43-1.46c1.05-0.27,2.44-0.43,4.17-0.49v-3.08h-24.6v3.08c1.73,0.11,3.13,0.28,4.21,0.53
		c1.08,0.24,1.9,0.7,2.47,1.38c0.57,0.67,0.94,1.59,1.13,2.75c0.19,1.16,0.28,2.68,0.28,4.57v37.71c0,1.89-0.11,3.43-0.32,4.61
		c-0.22,1.19-0.65,2.1-1.29,2.75c-0.65,0.65-1.55,1.11-2.71,1.38c-1.16,0.27-2.68,0.43-4.57,0.49v3.08h52.27l1.21-15.94H285
		C284.41,101.33,283.7,103.39,282.86,104.98z M351.07,61.57c-2.99-2.86-6.55-5.1-10.68-6.72c-4.13-1.62-8.62-2.43-13.47-2.43h-28.4
		v3.08c1.73,0.11,3.13,0.28,4.21,0.53c1.08,0.24,1.9,0.7,2.47,1.38c0.57,0.67,0.94,1.59,1.13,2.75c0.19,1.16,0.28,2.68,0.28,4.57
		v37.71c0,1.94-0.12,3.49-0.36,4.65c-0.24,1.16-0.72,2.08-1.42,2.75c-0.7,0.67-1.69,1.13-2.95,1.38c-1.27,0.24-2.93,0.39-4.98,0.44
		v3.08h31.64c4.69,0,9.01-0.74,12.95-2.23c3.94-1.48,7.32-3.55,10.15-6.19c2.83-2.64,5.03-5.81,6.59-9.51
		c1.56-3.69,2.35-7.75,2.35-12.18c0-4.64-0.84-8.93-2.51-12.87C356.4,67.83,354.07,64.43,351.07,61.57z M344.15,104.17
		c-3.94,4.4-9.6,6.59-16.99,6.59c-8.04,0-12.06-3.08-12.06-9.22V57.77c0-0.92,0.46-1.38,1.38-1.38h10.28c3.61,0,6.85,0.65,9.71,1.94
		c2.86,1.29,5.3,3.16,7.32,5.58c2.02,2.43,3.57,5.39,4.65,8.9c1.08,3.51,1.62,7.5,1.62,11.98
		C350.06,93.32,348.09,99.78,344.15,104.17z M406.22,111.17c-6.85,0-12.08-2.33-15.7-7c-3.61-4.67-5.42-11.34-5.42-20.03
		c0-4.42,0.47-8.39,1.42-11.89c0.94-3.51,2.31-6.47,4.09-8.9c1.78-2.43,3.96-4.29,6.55-5.58c2.59-1.29,5.53-1.94,8.82-1.94
		c4.8,0,8.9,1.35,12.3,4.05c3.4,2.7,5.69,6.42,6.88,11.17h2.99l-0.73-18.61h-2.27l-1.46,5.02c-3.35-2.05-6.45-3.53-9.31-4.45
		c-2.86-0.92-5.91-1.38-9.14-1.38c-4.58,0-8.78,0.8-12.58,2.39c-3.8,1.59-7.07,3.84-9.79,6.76c-2.72,2.91-4.84,6.39-6.35,10.44
		c-1.51,4.05-2.27,8.52-2.27,13.43c0,4.69,0.71,8.96,2.14,12.78c1.43,3.83,3.45,7.08,6.07,9.75c2.62,2.67,5.77,4.73,9.47,6.19
		c3.69,1.46,7.83,2.19,12.42,2.19c8.04,0,14.89-2.4,20.55-7.2l1.86,6.39h2.83V94.58h-3.32
		C423.32,105.64,416.63,111.17,406.22,111.17z M532.15,106.07l-17.88-21.52c5.66-0.97,9.79-2.89,12.38-5.75
		c2.59-2.86,3.88-6.45,3.88-10.76c0-4.91-2.04-8.74-6.11-11.49c-4.07-2.75-9.83-4.13-17.28-4.13h-25.41v3.08
		c1.73,0.11,3.13,0.28,4.21,0.53c1.08,0.24,1.9,0.7,2.47,1.38c0.57,0.67,0.94,1.59,1.13,2.75c0.19,1.16,0.28,2.68,0.28,4.57v37.71
		c0,1.89-0.11,3.43-0.32,4.61c-0.22,1.19-0.65,2.1-1.29,2.75c-0.65,0.65-1.55,1.11-2.71,1.38c-1.16,0.27-2.68,0.43-4.57,0.49v3.08
		h28.56v-3.08c-2.43,0-4.38-0.12-5.87-0.36c-1.48-0.24-2.62-0.71-3.4-1.42c-0.78-0.7-1.29-1.68-1.54-2.95
		c-0.24-1.27-0.36-2.9-0.36-4.9V85.2c1.24,0,2.31,0.04,3.2,0.12c0.89,0.08,1.67,0.27,2.35,0.57c0.67,0.3,1.32,0.72,1.94,1.25
		c0.62,0.54,1.28,1.27,1.98,2.18l19.82,25.41h15.62v-3.08c-2.43-0.38-4.52-0.96-6.27-1.74
		C535.21,109.14,533.61,107.85,532.15,106.07z M504.08,81.15h-5.75V57.6c0-0.92,0.46-1.38,1.38-1.38h7.44
		c4.42,0,7.67,0.94,9.75,2.83c2.08,1.89,3.12,5.02,3.12,9.39c0,4.53-1.31,7.78-3.92,9.75C513.47,80.17,509.47,81.15,504.08,81.15z
		 M609.35,71.76c-1.67-3.94-4.01-7.34-7-10.2c-2.99-2.86-6.55-5.1-10.68-6.72c-4.13-1.62-8.62-2.43-13.47-2.43h-28.4v3.08
		c1.73,0.11,3.13,0.28,4.21,0.53c1.08,0.24,1.9,0.7,2.47,1.38c0.57,0.67,0.94,1.59,1.13,2.75c0.19,1.16,0.28,2.68,0.28,4.57v37.71
		c0,1.94-0.12,3.49-0.36,4.65c-0.24,1.16-0.72,2.08-1.42,2.75c-0.7,0.67-1.69,1.13-2.95,1.38c-1.27,0.24-2.93,0.39-4.98,0.44v3.08
		h31.64c4.69,0,9.01-0.74,12.95-2.23c3.94-1.48,7.32-3.55,10.15-6.19c2.83-2.64,5.03-5.81,6.59-9.51c1.56-3.69,2.35-7.75,2.35-12.18
		C611.86,79.99,611.02,75.7,609.35,71.76z M595.43,104.17c-3.94,4.4-9.6,6.59-16.99,6.59c-8.04,0-12.06-3.08-12.06-9.22V57.77
		c0-0.92,0.46-1.38,1.38-1.38h10.28c3.61,0,6.85,0.65,9.71,1.94c2.86,1.29,5.3,3.16,7.32,5.58c2.02,2.43,3.57,5.39,4.65,8.9
		c1.08,3.51,1.62,7.5,1.62,11.98C601.34,93.32,599.37,99.78,595.43,104.17z M477.36,79.54c-8.67-10.67-14.7-19.08-18.81-27.5
		c-4.95,10.66-12.13,18.8-19.37,27.5c-2.9,3.49-4.45,6.65-4.45,11.59c0,6.07,5.41,13.21,12.02,13.64c5.85,0.38,9.83-4.71,10.43-5.51
		c-0.16,1.76-0.59,4.31-1.79,7.05c-2.12,4.87-5.38,7.39-6.89,8.41c2.8-0.61,6.12-1.09,9.87-1.18c4.12-0.09,7.75,0.32,10.76,0.88
		c-1.28-0.67-4.99-2.85-7.19-7.88c-1.24-2.83-1.53-5.48-1.59-7.11c0.61,0.8,4.37,5.58,9.95,5.33c6.56-0.29,12.03-7.34,12.03-13.64
		C482.33,86.5,479.85,82.61,477.36,79.54z M456.26,67.91c-4.59,12.57-9.66,17.26-7.61,22.43c0.29,0.74,1.07,2.59,3.31,3.54
		c2.97,1.26,4.04,0.74,5.03,0.39c-2.14,2.83-4,5.41-7.59,5.76c-4.26,0.41-6.01-1.62-7.19-2.79c-1.77-1.75-2.25-4.1-2.29-4.21
		c-0.8-1.95-0.52-7.31,2.1-10.15l3.38-4.35c2.19-2.68,5.73-6.8,6.1-7.25c3.96-4.88,6.4-11.11,6.38-11.01
		C457.55,61.7,458.35,62.19,456.26,67.91z M463.28,112.35c-0.15,0.03-2.22,0.38-3.68-1.18c-1.23-1.32-1.08-3-1.05-3.25l0.58-5.17
		c0.01,1.16,0.17,3.21,1.2,5.48C461.25,110.24,462.47,111.59,463.28,112.35z M55.2,167.47L15.68,94.19l-6.64,4.17
		c-4.47,2.81-5.47,8.26-3.29,12.13L55.2,167.47z M53.08,154.15L53.08,154.15l-7.73-31.41L29.31,57.59l-14.56,5.6
		c-5.05,1.94-8.6,8.47-5.41,13.56l45.42,84.24L53.08,154.15z M55.08,32.37L36.94,35.7c-5.41,0.99-8.89,5.63-7.74,10.3l25.88,105.15
		V32.37z M180.48,15.77H67.04c-5.1,0-9.28,4.17-9.28,9.28v166.25c0,5.1,4.17,9.28,9.28,9.28h113.45c5.1,0,9.28-4.17,9.28-9.28V25.05
		C189.76,19.94,185.58,15.77,180.48,15.77z M179.55,55.12c-2.23,0-4.23,0.83-6.01,2.5c-1.79,1.67-3.15,4.49-4.08,8.46l-21.16,89.2
		h-7.82L125.2,83.82l-17.39,71.46h-7.29L81.91,76.24c-1.11-4.6-2.14-8.3-3.07-11.1c-0.94-2.8-1.93-4.92-2.99-6.36
		c-1.05-1.44-2.2-2.39-3.42-2.84c-1.23-0.45-2.69-0.68-4.39-0.68v-5.55h33.19v5.55c-2.99,0-5.04,0.43-6.15,1.29
		c-1.11,0.86-1.67,2.28-1.67,4.26c0,0.72,0.03,1.42,0.09,2.1c0.06,0.68,0.18,1.44,0.35,2.3c0.18,0.86,0.4,1.92,0.66,3.18
		c0.26,1.26,0.63,2.84,1.1,4.74l12.29,54.55l14.22-59.83c-0.59-2.44-1.17-4.42-1.76-5.96c-0.59-1.53-1.27-2.75-2.06-3.65
		c-0.79-0.9-1.68-1.56-2.68-1.96s-2.19-0.74-3.6-1.02v-5.55h31v5.55c-2.46,0-4.27,0.47-5.44,1.42c-1.17,0.95-1.76,2.77-1.76,5.48
		c0,1.35,0.13,2.93,0.4,4.74c0.26,1.81,0.63,3.88,1.1,6.23l11.06,54.55l11.85-52.25c1.41-6.04,2.11-10.56,2.11-13.54
		c0-2.8-0.63-4.62-1.89-5.48c-1.26-0.86-3.21-1.29-5.84-1.29v-5.41h24.94V55.12z"/>
</g>
<g id="keep">
</g>
</svg>
