<?xml version="1.0" encoding="utf-8"?>
<!-- Generator: Adobe Illustrator 26.0.3, SVG Export Plug-In . SVG Version: 6.00 Build 0)  -->
<svg version="1.1" xmlns="http://www.w3.org/2000/svg" xmlns:xlink="http://www.w3.org/1999/xlink" x="0px" y="0px"
	 viewBox="0 0 232.27 288" style="enable-background:new 0 0 232.27 288;" xml:space="preserve">
<style type="text/css">
	.st0{fill:#010101;}
	.st1{fill:#FFFFFF;}
	.st2{fill-rule:evenodd;clip-rule:evenodd;fill:#010101;}
	.st3{display:none;}
	.st4{display:inline;}
	.st5{display:inline;fill:#010101;}
</style>
<g id="Poster_1:_A4">
	<g id="Background">
	</g>
	<g id="Layer_6">
	</g>
	<g id="Graphic_Elements">
	</g>
	<g id="Text">
	</g>
</g>
<g id="keep">
	<path class="st1" d="M7.72,127.41c-2.19-3.86-1.19-9.32,3.29-12.13l6.64-4.17l39.52,73.29L7.72,127.41z M55.04,171.07L55.04,171.07
		l-7.73-31.41L31.28,74.51l-14.56,5.6c-5.05,1.94-8.6,8.47-5.41,13.56l45.42,84.24L55.04,171.07z M57.04,49.3l-18.14,3.33
		c-5.41,0.99-8.89,5.63-7.74,10.3l25.88,105.15V49.3z M191.72,41.97v166.25c0,5.1-4.17,9.28-9.28,9.28H69
		c-5.1,0-9.28-4.17-9.28-9.28V41.97c0-5.1,4.17-9.28,9.28-9.28h113.45C187.55,32.69,191.72,36.87,191.72,41.97z M181.51,66.63
		h-24.94v5.41c2.63,0,4.58,0.43,5.84,1.29c1.26,0.86,1.89,2.69,1.89,5.48c0,2.98-0.7,7.49-2.11,13.54l-11.85,52.25l-11.06-54.55
		c-0.47-2.34-0.83-4.42-1.1-6.23c-0.26-1.8-0.4-3.38-0.4-4.74c0-2.71,0.58-4.53,1.76-5.48c1.17-0.95,2.99-1.42,5.44-1.42v-5.55h-31
		v5.55c1.41,0.27,2.6,0.61,3.6,1.02s1.89,1.06,2.68,1.96c0.79,0.9,1.48,2.12,2.06,3.65c0.58,1.54,1.17,3.52,1.76,5.96l-14.22,59.83
		L97.57,90.05c-0.47-1.89-0.83-3.47-1.1-4.74c-0.26-1.26-0.48-2.32-0.66-3.18c-0.17-0.86-0.29-1.62-0.35-2.3
		c-0.06-0.68-0.09-1.37-0.09-2.1c0-1.98,0.56-3.41,1.67-4.26c1.11-0.86,3.16-1.29,6.15-1.29v-5.55H70v5.55
		c1.7,0,3.16,0.23,4.39,0.68c1.23,0.45,2.37,1.4,3.42,2.84c1.05,1.44,2.05,3.57,2.99,6.36c0.94,2.8,1.96,6.5,3.07,11.1l18.62,79.04
		h7.29l17.39-71.46l15.28,71.46h7.82l21.16-89.2c0.94-3.97,2.3-6.79,4.08-8.46c1.79-1.67,3.79-2.5,6.01-2.5V66.63z"/>
</g>
</svg>
